# xmcd CD database file
# Copyright (C) 1993-1997  Ti Kan
#
# Track frame offsets:
#	150
#	13117
#	25560
#	37317
#	48972
#	61355
#	73175
#	86635
#	100645
#	110685
#	122645
#	134727
#
# Disc length: 1966 seconds
#
# Revision: 1
# Processed by: cddbd v1.4b41PL1 Copyright (c) Steve Scherf et al.
# Submitted via: xmcd 2.1 PL1
#
DISCID=a807ac0c
DTITLE=Howlin' Wolf/The Real Folk Blues
DYEAR=1900
DGENRE=
TTITLE0=Killing Floor
TTITLE1=Louise
TTITLE2=Poor Boy
TTITLE3=Sittin' On Top of the World
TTITLE4=Nature
TTITLE5=My Country Sugar Mama
TTITLE6=Tail Dragger
TTITLE7=Three Hundred Pounds of Joy
TTITLE8=Natchez Burning
TTITLE9=Built for Comfort
TTITLE10=Ooh Baby, Hold Me
TTITLE11=Tell Me What I've Done
EXTD=
EXTT0=
EXTT1=
EXTT2=
EXTT3=
EXTT4=
EXTT5=
EXTT6=
EXTT7=
EXTT8=
EXTT9=
EXTT10=
EXTT11=
PLAYORDER=
